<svg width="24" height="24" viewBox="0 0 24 24" fill="none" xmlns="http://www.w3.org/2000/svg">
<path d="M19 0H5C2.243 0 0 2.243 0 5V19C0 21.757 2.243 24 5 24H19C21.757 24 24 21.757 24 19V5C24 2.243 21.757 0 19 0ZM22 19C22 20.654 20.654 22 19 22H5C3.346 22 2 20.654 2 19V5C2 3.346 3.346 2 5 2H19C20.654 2 22 3.346 22 5V19ZM9.5 4H5.5C4.673 4 4 4.673 4 5.5V9.5C4 10.327 4.673 11 5.5 11H9.5C10.327 11 11 10.327 11 9.5V5.5C11 4.673 10.327 4 9.5 4ZM9 9H6V6H9V9ZM18.5 4H14.5C13.673 4 13 4.673 13 5.5V9.5C13 10.327 13.673 11 14.5 11H18.5C19.327 11 20 10.327 20 9.5V5.5C20 4.673 19.327 4 18.5 4ZM18 9H15V6H18V9ZM9.5 13H5.5C4.673 13 4 13.673 4 14.5V18.5C4 19.327 4.673 20 5.5 20H9.5C10.327 20 11 19.327 11 18.5V14.5C11 13.673 10.327 13 9.5 13ZM9 18H6V15H9V18ZM18.5 13H14.5C13.673 13 13 13.673 13 14.5V18.5C13 19.327 13.673 20 14.5 20H18.5C19.327 20 20 19.327 20 18.5V14.5C20 13.673 19.327 13 18.5 13ZM18 18H15V15H18V18Z" fill="url(#paint0_linear_1_29600)"/>
<defs>
<linearGradient id="paint0_linear_1_29600" x1="12" y1="0" x2="12" y2="24" gradientUnits="userSpaceOnUse">
<stop stop-color="#FF6B35"/>
<stop offset="1" stop-color="#FF0080"/>
</linearGradient>
</defs>
</svg>
