<svg width="11" height="15" viewBox="0 0 11 15" fill="none" xmlns="http://www.w3.org/2000/svg">
<path d="M5.18737 0C5.6814 1.97614 6.66947 3.58175 8.15158 4.81684C9.63369 6.05193 10.3747 7.41053 10.3747 8.89263C10.3747 10.2684 9.82821 11.5878 8.85539 12.5607C7.88257 13.5335 6.56314 14.08 5.18737 14.08C3.81159 14.08 2.49217 13.5335 1.51935 12.5607C0.546525 11.5878 2.05007e-08 10.2684 0 8.89263C0 8.09092 0.260028 7.31084 0.741053 6.66947C0.741053 7.16082 0.93624 7.63205 1.28368 7.97948C1.63111 8.32692 2.10234 8.52211 2.59368 8.52211C3.08503 8.52211 3.55626 8.32692 3.90369 7.97948C4.25113 7.63205 4.44632 7.16082 4.44632 6.66947C4.44632 5.18737 3.33474 4.44632 3.33474 2.96421C3.33474 1.97614 3.95228 0.98807 5.18737 0Z" fill="#FF6A3D"/>
</svg>
