<svg width="46" height="32" viewBox="0 0 46 32" fill="none" xmlns="http://www.w3.org/2000/svg">
<rect width="45.5137" height="31.2094" rx="3.90118" fill="white"/>
<path d="M28.7689 6.79297C33.6696 6.79297 37.6429 10.8119 37.6429 15.7695C37.6429 20.7272 33.6696 24.7461 28.7689 24.7461C26.5716 24.746 24.5627 23.9359 23.013 22.5977C21.4634 23.9356 19.4551 24.746 17.2581 24.7461C12.3574 24.7461 8.38412 20.7272 8.38412 15.7695C8.38414 10.8119 12.3574 6.79297 17.2581 6.79297C19.4549 6.79308 21.4635 7.60272 23.013 8.94043C24.5627 7.60243 26.5719 6.79309 28.7689 6.79297Z" fill="#ED0006"/>
<path d="M28.7694 6.79297C33.6701 6.79298 37.6434 10.8119 37.6434 15.7695C37.6434 20.7272 33.6701 24.7461 28.7694 24.7461C26.5723 24.7461 24.5632 23.9366 23.0135 22.5986C24.9206 20.9522 26.1317 18.5046 26.1317 15.7695C26.1317 13.0342 24.9208 10.5859 23.0135 8.93945C24.5632 7.60175 26.5725 6.79297 28.7694 6.79297Z" fill="#F9A000"/>
<path d="M23.013 8.94043C24.9202 10.5869 26.1312 13.0344 26.1312 15.7695C26.1312 18.5045 24.9199 20.9512 23.013 22.5977C21.1065 20.9512 19.8958 18.5042 19.8958 15.7695C19.8959 13.0347 21.1062 10.5869 23.013 8.94043Z" fill="#FF5E00"/>
</svg>
