<svg width="46" height="32" viewBox="0 0 46 32" fill="none" xmlns="http://www.w3.org/2000/svg">
<rect width="45.5137" height="31.2094" rx="3.90118" fill="white"/>
<path fill-rule="evenodd" clip-rule="evenodd" d="M13.817 21.142H11.0597L8.99215 13.254C8.89401 12.8911 8.68564 12.5703 8.37913 12.4192C7.6142 12.0392 6.77129 11.7368 5.85176 11.5843V11.2807H10.2935C10.9065 11.2807 11.3663 11.7368 11.4429 12.2667L12.5157 17.9565L15.2716 11.2807H17.9522L13.817 21.142ZM19.4847 21.142H16.8808L19.025 11.2807H21.629L19.4847 21.142ZM24.9979 14.0125C25.0745 13.4814 25.5343 13.1777 26.0707 13.1777C26.9136 13.1015 27.8318 13.254 28.5981 13.6326L29.0578 11.5094C28.2915 11.2057 27.4486 11.0532 26.6837 11.0532C24.1563 11.0532 22.3173 12.4192 22.3173 14.3149C22.3173 15.7571 23.62 16.5144 24.5395 16.9705C25.5343 17.4254 25.9174 17.7291 25.8408 18.184C25.8408 18.8663 25.0745 19.17 24.3096 19.17C23.3901 19.17 22.4705 18.9426 21.629 18.5626L21.1692 20.6871C22.0887 21.0657 23.0836 21.2182 24.0031 21.2182C26.837 21.2932 28.5981 19.9286 28.5981 17.8803C28.5981 15.3009 24.9979 15.1497 24.9979 14.0125ZM37.7114 21.142L35.6438 11.2807H33.4229C32.9631 11.2807 32.5034 11.5843 32.3501 12.0392L28.5214 21.142H31.2021L31.7371 19.7011H35.0307L35.3373 21.142H37.7114ZM33.806 13.9363L34.571 17.6529H32.4268L33.806 13.9363Z" fill="#172B85"/>
</svg>
