<svg width="46" height="32" viewBox="0 0 46 32" fill="none" xmlns="http://www.w3.org/2000/svg">
<rect width="45.5137" height="31.2094" rx="3.90118" fill="#1F72CD"/>
<path fill-rule="evenodd" clip-rule="evenodd" d="M8.15953 11.0532L3.90117 20.4768H8.99902L9.63101 18.9743H11.0756L11.7076 20.4768H17.3189V19.3301L17.8189 20.4768H20.7215L21.2215 19.3058V20.4768H32.8915L34.3105 19.0133L35.6392 20.4768L41.6331 20.4889L37.3613 15.7913L41.6331 11.0532H35.7322L34.3508 12.4897L33.064 11.0532H20.3685L19.2784 13.4855L18.1627 11.0532H13.0754V12.161L12.5095 11.0532H8.15953ZM9.14593 12.3914H11.6309L14.4554 18.7816V12.3914H17.1776L19.3592 16.9731L21.3699 12.3914H24.0784V19.1535H22.4303L22.4169 13.8547L20.0141 19.1535H18.5398L16.1236 13.8547V19.1535H12.7331L12.0904 17.6375H8.6177L7.97626 19.1521H6.15967L9.14593 12.3914ZM32.2877 12.3914H25.5863V19.1495H32.184L34.3105 16.9097L36.3601 19.1495H38.5028L35.3885 15.79L38.5028 12.3914H36.4531L34.3374 14.6054L32.2877 12.3914ZM10.3548 13.5355L9.21066 16.2361H11.4975L10.3548 13.5355ZM27.2411 15.0259V13.7915V13.7903H31.4227L33.2472 15.7644L31.3418 17.7494H27.2411V16.4017H30.8971V15.0259H27.2411Z" fill="white"/>
</svg>
