<svg width="46" height="32" viewBox="0 0 46 32" fill="none" xmlns="http://www.w3.org/2000/svg">
<rect width="45.5137" height="31.2094" rx="3.90118" fill="white"/>
<path d="M19.1808 30.5588L44.8635 23.0815V27.3078C44.8635 29.1033 43.408 30.5588 41.6126 30.5588H19.1808Z" fill="#FD6020"/>
<path d="M19.43 12.4976C19.9245 12.4976 20.4905 12.5677 20.9144 12.8472V14.2446C20.5611 13.8254 19.9952 13.5454 19.43 13.5454C18.2998 13.6155 17.3819 14.5937 17.4525 15.7114V15.8511C17.4525 16.9689 18.3709 17.8071 19.5013 17.8071C20.0664 17.807 20.5612 17.528 20.9144 17.1089V18.5063C20.4198 18.7159 19.9249 18.856 19.3597 18.856C17.5937 18.8559 16.1812 17.3885 16.181 15.6421C16.181 13.8257 17.5934 12.3581 19.43 12.4976ZM30.5218 16.6899L32.2171 12.4976H33.4896L30.8753 18.856H30.2396L27.6253 12.4976H28.8968L30.5218 16.6899ZM13.7786 12.3579C14.4144 12.3579 15.0507 12.637 15.5452 13.0562L14.9085 13.895C14.626 13.6158 14.2733 13.4059 13.9202 13.4058C13.4963 13.3359 13.1432 13.6858 13.0726 14.105C13.0727 14.454 13.2843 14.5942 13.9905 14.8735C15.4034 15.4324 15.7568 15.8516 15.8275 16.6899V16.8989C15.7568 18.0167 14.8385 18.8553 13.7083 18.7856C12.8606 18.7856 12.0121 18.3666 11.5882 17.5981L12.3655 16.8296C12.5775 17.3185 13.072 17.6674 13.637 17.6675H13.7083C14.1321 17.6672 14.556 17.2482 14.556 16.7593C14.5559 16.4799 14.4143 16.2701 14.2025 16.1304C13.92 15.9907 13.6373 15.8516 13.3548 15.7817C12.2246 15.4325 11.8715 14.9431 11.8714 14.105V14.0347C11.9421 13.0566 12.7896 12.288 13.7786 12.3579ZM6.43097 12.4976C8.12632 12.5674 9.46907 13.9646 9.39874 15.6411C9.39874 16.5493 8.97432 17.3883 8.26788 18.0171C7.63219 18.506 6.85535 18.7851 6.07843 18.7153H4.31183V12.4976H6.43097ZM11.0941 18.7153H9.89288V12.4976H11.0941V18.7153ZM37.4456 13.5454H35.2552V14.9429H37.3753V15.9907H35.2552V17.6675H37.4456V18.7153H34.054V12.4976H37.4456V13.5454ZM39.9896 12.4976C41.4019 12.4978 42.1789 13.1266 42.179 14.314C42.2497 15.2221 41.6135 15.9905 40.7659 16.1304L42.6741 18.7153H41.1898L39.5657 16.2007H39.4241V18.7153H38.223V12.4976H39.9896ZM5.86652 13.5454H5.513V17.6675H5.86652C6.43156 17.7372 7.06676 17.5274 7.49054 17.1782C7.91436 16.7591 8.12723 16.2005 8.12726 15.5718C8.12723 15.0129 7.91439 14.4538 7.49054 14.0347C7.06677 13.6856 6.43145 13.4757 5.86652 13.5454ZM39.4241 15.3618H39.7776C40.5541 15.3616 40.9074 15.0126 40.9075 14.3843C40.9075 13.8256 40.5541 13.4763 39.7776 13.4761H39.4241V15.3618Z" fill="black"/>
<path fill-rule="evenodd" clip-rule="evenodd" d="M24.517 12.3535C22.7508 12.3535 21.2672 13.7508 21.2672 15.5674C21.2672 17.314 22.6802 18.7812 24.517 18.8511C26.3538 18.9209 27.7668 17.4537 27.8374 15.6372C27.7668 13.8207 26.3538 12.3535 24.517 12.3535V12.3535Z" fill="#FD6020"/>
</svg>
