<svg width="24" height="24" viewBox="0 0 24 24" fill="none" xmlns="http://www.w3.org/2000/svg">
<path d="M15.4 9.87982L10.81 5.28982C10.6227 5.10356 10.3692 4.99902 10.105 4.99902C9.84086 4.99902 9.58741 5.10356 9.40005 5.28982C9.30632 5.38278 9.23192 5.49338 9.18116 5.61524C9.13039 5.7371 9.10425 5.8678 9.10425 5.99982C9.10425 6.13183 9.13039 6.26253 9.18116 6.38439C9.23192 6.50625 9.30632 6.61685 9.40005 6.70982L14 11.2898C14.0938 11.3828 14.1682 11.4934 14.2189 11.6152C14.2697 11.7371 14.2958 11.8678 14.2958 11.9998C14.2958 12.1318 14.2697 12.2625 14.2189 12.3844C14.1682 12.5063 14.0938 12.6169 14 12.7098L9.40005 17.2898C9.21174 17.4768 9.10543 17.7309 9.10449 17.9963C9.10355 18.2616 9.20807 18.5165 9.39505 18.7048C9.58202 18.8931 9.83615 18.9994 10.1015 19.0004C10.3669 19.0013 10.6217 18.8968 10.81 18.7098L15.4 14.1198C15.9618 13.5573 16.2774 12.7948 16.2774 11.9998C16.2774 11.2048 15.9618 10.4423 15.4 9.87982Z" fill="black"/>
</svg>
