<svg viewBox="0 0 16 16" xmlns="http://www.w3.org/2000/svg" xmlns:xlink="http://www.w3.org/1999/xlink" width="16.000000" height="16.000000" fill="none">
	<defs>
		<g id="pixso_custom_effect_0">
			<effect x="0.000000" y="1.000000" visibility="visible" fill="rgb(0,0,0)" fill-opacity="0.0799999982" effectType="dropShadow" stdDeviation="4" radius="0" />
		</g>
		<filter id="filter_0" width="24.200195" height="22.868164" x="-4.100098" y="-3.122070" filterUnits="userSpaceOnUse" customEffect="url(#pixso_custom_effect_0)" color-interpolation-filters="sRGB">
			<feFlood flood-opacity="0" result="BackgroundImageFix" />
			<feOffset dx="0.000000" dy="1.000000" in="SourceAlpha" />
			<feGaussianBlur stdDeviation="1.33333337" />
			<feColorMatrix type="matrix" values="0 0 0 0 0 0 0 0 0 0 0 0 0 0 0 0 0 0 0.08 0 " />
			<feBlend result="effect_dropShadow_1" in2="BackgroundImageFix" mode="normal" />
			<feBlend result="shape" in="SourceGraphic" in2="effect_dropShadow_1" mode="normal" />
		</filter>
	</defs>
	<rect id="shipping-fast 1" width="16.000000" height="16.000000" x="0.000000" y="0.000000" fill="rgb(255,255,255)" fill-opacity="0" />
	<g filter="url(#filter_0)">
		<path id="Vector" d="M12.6667 2.64518L11.282 2.64518C11.058 1.37652 10.1133 0.329182 8.83267 -0.000151077C8.48 -0.0914844 8.11333 0.123182 8.02067 0.479182C7.92867 0.835849 8.144 1.19918 8.50067 1.29052C9.38333 1.51785 10 2.31452 10 3.22785L10 10.6452L2.66667 10.6452C1.93133 10.6452 1.33333 10.0472 1.33333 9.31185L1.33333 6.64518L3 6.64518C3.36867 6.64518 3.66667 6.34652 3.66667 5.97852C3.66667 5.61052 3.36867 5.31185 3 5.31185L1.33333 5.31185C0.598 5.31185 0 5.90985 0 6.64518L0 9.31185C0 10.5652 0.869334 11.6192 2.03667 11.9032C2.01267 12.0372 2 12.1738 2 12.3118C2 13.5985 3.04667 14.6452 4.33333 14.6452C5.62 14.6452 6.66667 13.5985 6.66667 12.3118C6.66667 12.1992 6.658 12.0885 6.642 11.9785L9.358 11.9785C9.342 12.0885 9.33333 12.1992 9.33333 12.3118C9.33333 13.5985 10.38 14.6452 11.6667 14.6452C12.9533 14.6452 14 13.5985 14 12.3118C14 12.1738 13.9873 12.0372 13.9633 11.9032C15.1307 11.6192 16 10.5652 16 9.31185L16 5.97852C16 4.14052 14.5047 2.64518 12.6667 2.64518ZM14.6667 5.97852L14.6667 6.64518L11.3333 6.64518L11.3333 3.97852L12.6667 3.97852C13.7693 3.97852 14.6667 4.87585 14.6667 5.97852ZM5.33333 12.3118C5.33333 12.8632 4.88467 13.3118 4.33333 13.3118C3.782 13.3118 3.33333 12.8632 3.33333 12.3118C3.33333 12.1858 3.358 12.0745 3.394 11.9785L5.27333 11.9785C5.30933 12.0745 5.334 12.1858 5.334 12.3118L5.33333 12.3118ZM11.6667 13.3118C11.1153 13.3118 10.6667 12.8632 10.6667 12.3118C10.6667 12.1858 10.6913 12.0745 10.7273 11.9785L12.6067 11.9785C12.6427 12.0745 12.6673 12.1858 12.6673 12.3118C12.6673 12.8632 12.218 13.3118 11.6667 13.3118ZM13.3333 10.6452L11.3333 10.6452L11.3333 7.97852L14.6667 7.97852L14.6667 9.31185C14.6667 10.0472 14.0687 10.6452 13.3333 10.6452ZM0 0.645182C0 0.277182 0.298 -0.0214844 0.666667 -0.0214844L6.10267 -0.0214844C6.47133 -0.0214844 6.76933 0.277182 6.76933 0.645182C6.76933 1.01318 6.47133 1.31185 6.10267 1.31185L0.666667 1.31185C0.298 1.31185 0 1.01318 0 0.645182ZM0 3.31185C0 2.94385 0.298 2.64518 0.666667 2.64518L4.76933 2.64518C5.138 2.64518 5.436 2.94385 5.436 3.31185C5.436 3.67985 5.138 3.97852 4.76933 3.97852L0.666667 3.97852C0.298 3.97852 0 3.67985 0 3.31185Z" fill="rgb(255,255,255)" fill-rule="nonzero" />
		<path id="Vector" d="M11.282 2.64518C11.058 1.37652 10.1133 0.329182 8.83267 -0.000151077C8.48 -0.0914844 8.11333 0.123182 8.02067 0.479182C7.92867 0.835849 8.144 1.19918 8.50067 1.29052C9.38333 1.51785 10 2.31452 10 3.22785L10 10.6452L2.66667 10.6452C1.93133 10.6452 1.33333 10.0472 1.33333 9.31185L1.33333 6.64518L3 6.64518C3.36867 6.64518 3.66667 6.34652 3.66667 5.97852C3.66667 5.61052 3.36867 5.31185 3 5.31185L1.33333 5.31185C0.598 5.31185 0 5.90985 0 6.64518L0 9.31185C0 10.5652 0.869334 11.6192 2.03667 11.9032C2.01267 12.0372 2 12.1738 2 12.3118C2 13.5985 3.04667 14.6452 4.33333 14.6452C5.62 14.6452 6.66667 13.5985 6.66667 12.3118C6.66667 12.1992 6.658 12.0885 6.642 11.9785L9.358 11.9785C9.342 12.0885 9.33333 12.1992 9.33333 12.3118C9.33333 13.5985 10.38 14.6452 11.6667 14.6452C12.9533 14.6452 14 13.5985 14 12.3118C14 12.1738 13.9873 12.0372 13.9633 11.9032C15.1307 11.6192 16 10.5652 16 9.31185L16 5.97852C16 4.14052 14.5047 2.64518 12.6667 2.64518L11.282 2.64518ZM14.6667 6.64518L11.3333 6.64518L11.3333 3.97852L12.6667 3.97852C13.7693 3.97852 14.6667 4.87585 14.6667 5.97852L14.6667 6.64518ZM4.33333 13.3118C3.782 13.3118 3.33333 12.8632 3.33333 12.3118C3.33333 12.1858 3.358 12.0745 3.394 11.9785L5.27333 11.9785C5.30933 12.0745 5.334 12.1858 5.334 12.3118L5.33333 12.3118C5.33333 12.8632 4.88467 13.3118 4.33333 13.3118ZM10.6667 12.3118C10.6667 12.1858 10.6913 12.0745 10.7273 11.9785L12.6067 11.9785C12.6427 12.0745 12.6673 12.1858 12.6673 12.3118C12.6673 12.8632 12.218 13.3118 11.6667 13.3118C11.1153 13.3118 10.6667 12.8632 10.6667 12.3118ZM11.3333 10.6452L11.3333 7.97852L14.6667 7.97852L14.6667 9.31185C14.6667 10.0472 14.0687 10.6452 13.3333 10.6452L11.3333 10.6452ZM0.666667 -0.0214844L6.10267 -0.0214844C6.47133 -0.0214844 6.76933 0.277182 6.76933 0.645182C6.76933 1.01318 6.47133 1.31185 6.10267 1.31185L0.666667 1.31185C0.298 1.31185 0 1.01318 0 0.645182C0 0.277182 0.298 -0.0214844 0.666667 -0.0214844ZM0.666667 2.64518L4.76933 2.64518C5.138 2.64518 5.436 2.94385 5.436 3.31185C5.436 3.67985 5.138 3.97852 4.76933 3.97852L0.666667 3.97852C0.298 3.97852 0 3.67985 0 3.31185C0 2.94385 0.298 2.64518 0.666667 2.64518Z" fill-rule="nonzero" stroke="rgb(255,255,255)" stroke-width="0.200000003" />
	</g>
</svg>
